<svg xmlns="http://www.w3.org/2000/svg" xmlns:xlink="http://www.w3.org/1999/xlink" version="1.1" x="0px" y="0px" viewBox="0 0 64 80" style="enable-background:new 0 0 64 64;" xml:space="preserve"><g><g><g><g><path d="M21.7,42.2c0.1,0.2,0.6,0.4,0.9,0.4c0.8,0,1.7,0,2.5,0v0c0.1,0,0.1,0,0.2,0c0.1,0,0.1,0,0.2,0v0c0.8,0,1.7,0,2.5,0      c0.3,0,0.8-0.2,0.9-0.4c0.8-1.2,1.6-2.4,2.2-3.7c1.5-3-3.6-3.4-5.6-3.6v0c-0.1,0-0.1,0-0.2,0c-0.1,0-0.1,0-0.2,0v0      c-2.1,0.1-7.1,0.6-5.6,3.6C20.1,39.8,20.9,41,21.7,42.2z"/><path d="M28.8,57.1c-0.4-3.7-0.8-7.4-1.1-11.2c-0.1-0.7-0.1-1.5-1-1.6c-0.2,0-0.8,0-1.4,0c-0.6,0-1.2,0-1.4,0      c-0.9,0.1-0.9,0.9-1,1.6c-0.3,3.7-0.7,7.4-1.1,11.2c-0.1,0.7,0.5,1.3,1.3,1.3c0.7,0,1.4,0,2.2,0h0h0c0.7,0,1.4,0,2.2,0      C28.3,58.4,28.9,57.8,28.8,57.1z"/></g><g><path d="M16.5,57.8C11,56.9,5.9,55.3,1.3,53c0-1.1,0-2.2,0.2-3.2c0.3-2.4,1-5,2.1-7.3c0.3-0.6,0.8-1.1,1.5-1.3l4.8-1.4      c0,0,1.7-0.5,3.4-1.6c1.1-0.7,2.7,0.1,2.7,1.3c0.1,3.4,0.5,8.9,2.1,16.8C18.2,57.2,17.4,57.9,16.5,57.8z"/><path d="M49.4,53c-4.6,2.3-9.8,3.9-15.3,4.8c-0.9,0.1-1.7-0.6-1.6-1.4c1.6-7.8,2-13.4,2.1-16.8c0-1.3,1.6-2,2.7-1.3      c1.7,1,3.4,1.6,3.4,1.6l4.4,1.2c1,0.3,1.7,1,2.1,1.9c1,2.2,1.6,4.6,1.9,6.9C49.3,50.9,49.4,51.9,49.4,53z"/></g></g><path d="M35.7,21.3c-0.5-2.3,0-4.6-0.2-7c-0.3-3-2-4.9-4.6-6c-1.8-0.8-3.6-1.1-5.4-1.1c0,0-0.1,0-0.1,0c0,0-0.1,0-0.1,0    c-1.8,0-3.6,0.4-5.4,1.1c-2.7,1.1-4.3,3-4.6,6c-0.3,2.3,0.2,4.6-0.2,7c-0.3,1.4,0.3,2.9,1.7,3.9c0.2,0.1,0.3,0.3,0.3,0.5    c1,3.3,4.6,6.4,8.1,6.5c3.7,0.1,7.5-3.1,8.6-6.5c0.1-0.2,0.2-0.4,0.3-0.5C35.4,24.2,36,22.7,35.7,21.3z"/></g><g><path d="M62.6,19.5l-1.2,8.8c0,0-0.1,1.9-3.2,2.6H46.5c-0.1,0-0.2,0-0.3,0c0,0,0,0,0,0c-1.4-0.3-2.4-1.5-2.4-3v-10    c0-0.5,0.2-0.9,0.6-1.3c2-1.8,4.3-3.5,5.4-6.1c0.3-0.7,0.5-1.5,0.7-2.3c0.1-0.4,0.2-0.7,0.2-1.1c0-0.4,0.1-0.8,0.3-1.2    c0.2-0.3,0.6-0.5,1-0.5c1-0.1,2.3,1,2.5,1.9c0.3,1.2,0.2,2.5,0,3.7c-0.1,0.6-0.3,1.2-0.5,1.8c-0.1,0.2-0.5,1.7-0.8,1.9h0.5    l6.8,0.3C60.5,15.1,63.5,15.7,62.6,19.5z"/><path d="M42.4,16.1h-2.1c-0.3,0-0.6,0.3-0.6,0.6v13.6c0,0.3,0.3,0.6,0.6,0.6h2.1c0.3,0,0.6-0.3,0.6-0.6V16.7    C43,16.4,42.8,16.1,42.4,16.1z"/></g></g><text x="0" y="79" fill="#000000" font-size="5px" font-weight="bold" font-family="'Helvetica Neue', Helvetica, Arial-Unicode, Arial, Sans-serif">Created by Md Saiful Alam Saif</text><text x="0" y="84" fill="#000000" font-size="5px" font-weight="bold" font-family="'Helvetica Neue', Helvetica, Arial-Unicode, Arial, Sans-serif">from the Noun Project</text></svg>