<?xml version="1.0"?>
<svg version="1.1" xmlns="http://www.w3.org/2000/svg" width="400px" height="200px" style=""><path fill="#fdcf29" d="M141.685546875,116.7890625l-4.169921875,0l0-19.98828125l11.45703125,0l0,3.47265625l-7.287109375,0l0,5.154296875l6.78125,0l0,3.458984375l-6.78125,0l0,7.90234375z M152.29177734375,101.50390625l4.56640625,0l2.884765625,8.599609375q0.369140625,1.12109375,0.505859375,2.65234375l0.08203125,0q0.150390625-1.408203125,0.587890625-2.65234375l2.830078125-8.599609375l4.470703125,0l-6.466796875,17.240234375q-0.888671875,2.392578125-2.5361328125,3.58203125t-3.8486328125,1.189453125q-1.080078125,0-2.119140625-0.232421875l0-3.30859375q0.751953125,0.177734375,1.640625,0.177734375q1.107421875,0,1.9345703125-0.6767578125t1.2919921875-2.0439453125l0.24609375-0.751953125z M175.4624609375,108.982421875l-4.921875-7.478515625l4.73046875,0l2.966796875,4.8671875l2.994140625-4.8671875l4.73046875,0l-4.9765625,7.478515625l5.208984375,7.806640625l-4.744140625,0l-3.212890625-5.236328125l-3.2265625,5.236328125l-4.73046875,0z"/><path fill="#000000" d="M190.82,114.616c0-1.596,1.148-2.52,2.408-2.52c1.54,0,2.352,0.924,2.352,2.52c0,1.624-1.148,2.548-2.408,2.548c-1.54,0-2.352-0.924-2.352-2.548z M206.34628,95.1l0,8.204c0.812-0.672,2.632-1.904,4.704-1.904c2.856,0,4.396,1.904,4.396,5.04l0,7.42l1.96,0.7l0,2.24l-7.616,0l0-2.24l1.456-0.672l0-6.776c0-1.4-0.56-2.24-1.848-2.24c-1.568,0-3.052,1.484-3.052,1.484l0,7.504l1.484,0.7l0,2.24l-7.924,0l0-2.24l2.24-0.7l0-15.736l-2.24-0.56l0-2.24z M228.59256,101.4c4.536,0,7.056,2.744,7.056,7.56c0,5.04-2.94,8.12-7.476,8.12c-4.564,0-7.14-2.38-7.14-7.7c0-5.04,2.996-7.98,7.56-7.98z M228.45256,104.76c-2.044,0-3.08,1.12-3.08,4.48c0,3.08,0.896,4.48,2.94,4.48c2.016,0,2.996-1.26,2.996-4.62c0-2.856-0.84-4.34-2.856-4.34z M265.67884,114.56l0,2.24l-7.588,0l0-2.24l1.484-0.7l0-6.664c0-1.54-0.448-2.296-1.624-2.296c-1.82,0-3.108,1.456-3.108,1.456l0,7.504l1.456,0.7l0,2.24l-7.112,0l0-2.24l1.456-0.7l0-6.664c0-1.54-0.392-2.296-1.596-2.296c-1.82,0-3.136,1.456-3.136,1.456l0,7.504l1.484,0.7l0,2.24l-7.84,0l0-2.24l2.156-0.7l0-9.1l-2.128-0.7l0-2.24l5.852-0.14l0.196,1.988s2.436-2.268,4.9-2.268c1.988,0,3.22,0.924,3.864,2.408c0.476-0.476,2.576-2.408,5.068-2.408c2.94,0,4.312,1.904,4.312,5.04l0,7.42z M282.96912,110.164l-9.296,0c0.168,2.24,1.456,3.556,3.388,3.556c2.324,0,4.704-1.316,4.704-1.316l1.204,2.324s-2.8,2.352-6.384,2.352c-4.816,0-7.28-2.8-7.28-7.56c0-4.9,2.772-8.12,7.476-8.12c4.172,0,6.356,2.576,6.356,6.58c0,1.064-0.168,2.1-0.168,2.184z M273.72912,107.56l5.068,0c0-1.596-0.672-2.8-2.296-2.8c-1.568,0-2.548,1.148-2.772,2.8z M289.6474,111.9l0.224,1.82s0.98,0.28,2.352,0.28c1.54,0,2.296-0.476,2.296-1.372c0-2.296-7.476-1.456-7.476-6.44c0-3.5,2.8-4.788,5.768-4.788c2.52,0,5.208,0.84,5.208,0.84l-0.112,4.2l-2.38,0l-0.42-1.68s-0.812-0.28-1.932-0.28c-1.204,0-1.932,0.504-1.932,1.428c0,2.268,7.476,1.288,7.476,6.132c0,3.22-2.604,5.04-6.44,5.04c-2.66,0-5.152-0.616-5.152-0.616l0-4.564l2.52,0z"/></svg>
