<svg xmlns="http://www.w3.org/2000/svg" xmlns:xlink="http://www.w3.org/1999/xlink" version="1.1" x="0px" y="0px" viewBox="0 0 100 125" style="enable-background:new 0 0 100 100;" xml:space="preserve"><g><g><path d="M76.0971069,79.4608459l-16.7787476-5.6814346c-1.1025238-0.3737717-2.3360863-0.1270218-3.210659,0.6429749    l-5.5469208,4.8701859c-1.3492737,1.1849289-3.2555542,1.5810547-4.9672852,1.0316238    c-3.367794-1.0726852-10.3722153-3.3078461-16.4947662-9.4265594c-6.118536-6.1223679-8.3536949-13.1268845-9.4264679-16.4945869    c-0.5495281-1.7156525-0.1533051-3.6181946,1.0315266-4.9674644l4.8703728-5.546833    c0.7699947-0.8745728,1.0165615-2.1043015,0.6427879-3.210659l-5.6812477-16.7787457    c-0.7738285-2.2949295-2.646347-3.9881344-5.0123634-4.5300884c-2.3322515-0.5345612-4.728199,0.1569557-6.3990469,1.8539028    c-4.1974702,4.2609825-9.1872015,11.4636059-9.1236897,21.5854244    c0.0784779,11.6056862,6.7764711,24.1457214,19.907093,37.2801743    C33.0421486,93.2193832,45.58218,99.9174652,57.1879578,99.9959412    c10.1179886,0.0560303,17.3242645-4.9225693,21.5854263-9.1238708c1.6969452-1.6707535,2.3921127-4.0666122,1.8539047-6.3989563    C80.0852432,82.1071014,78.392128,80.2344894,76.0971069,79.4608459z"/><path d="M22.9314632,14.0317612c0.3102608,0,0.6205235-0.1084089,0.8672714-0.328968    c0.6092072-0.5382128,1.2408638-1.0651999,1.8763504-1.5698309c0.5681438-0.4485102,0.6615868-1.2707939,0.212986-1.8389368    c-0.4486008-0.5644016-1.2707939-0.6615868-1.8352871-0.2130766c-0.6763687,0.5344706-1.3417892,1.0913897-1.988409,1.6632738    c-0.5382118,0.4784412-0.5905914,1.3044662-0.1120586,1.8465109    C22.2101974,13.8821964,22.5726547,14.0317612,22.9314632,14.0317612z"/><path d="M28.8932247,9.5689268c0.2392673,0,0.4785328-0.0673456,0.6951675-0.2018528    c1.1997986-0.7550297,2.4519787-1.4577718,3.7191219-2.0931687c0.6466217-0.321394,0.9083328-1.1063552,0.583107-1.7529759    c-0.3215752-0.6466212-1.1063538-0.9082446-1.7529755-0.5868502c-1.3456211,0.6728106-2.6687946,1.4166164-3.9434204,2.2164516    c-0.6092072,0.3849978-0.7960949,1.1924076-0.411005,1.805356C28.0336189,9.352108,28.459589,9.5689268,28.8932247,9.5689268z"/><path d="M53.9247398,2.6204426c1.4204483,0.0261896,2.8520317,0.119633,4.2573318,0.2803302    c0.0523796,0.0074828,0.1009254,0.011224,0.1533051,0.011224c0.6541061,0,1.2185974-0.4934065,1.2970772-1.1587346    c0.0821266-0.7176161-0.4336357-1.3679785-1.1512527-1.4501977c-1.4876137-0.1719213-3.0051537-0.2728474-4.5077324-0.2990371    c-0.7064819-0.0187069-1.3195229,0.5606604-1.3306541,1.2857592C52.6278496,2.0111442,53.2034721,2.6054771,53.9247398,2.6204426z    "/><path d="M79.4647217,8.0924473c-0.5942459-0.4036131-1.4089508-0.2503986-1.8164902,0.3476753    c-0.4073563,0.5942421-0.2504044,1.4091339,0.3438416,1.8164883c1.1700516,0.7961855,2.3174667,1.6595335,3.4050293,2.5678692    c0.2467422,0.2055931,0.542038,0.3026867,0.8373337,0.3026867c0.3774261,0,0.747551-0.160697,1.0054321-0.4708672    c0.4635696-0.5532684,0.3887405-1.3792934-0.1644363-1.8427696C81.9166946,9.8529978,80.7057648,8.9371796,79.4647217,8.0924473z"/><path d="M62.3945084,3.5922904c1.3866844,0.2952044,2.7772064,0.6614952,4.1264725,1.0876484    c0.1308594,0.044805,0.2617188,0.0635123,0.392395,0.0635123c0.5570068,0,1.0727692-0.3550668,1.2485275-0.9157271    c0.2168121-0.6877763-0.164444-1.4240994-0.8521271-1.640826c-1.4279327-0.4523426-2.8967438-0.8409905-4.3695717-1.1549932    c-0.7063026-0.149473-1.4016533,0.2990371-1.5511246,1.0054289C61.2396049,2.7438171,61.6882057,3.4389849,62.3945084,3.5922904z"/><path d="M99.99617,46.4154663c-0.0074844-0.717617-0.5905914-1.2932434-1.3082123-1.2932434h-0.0149612    c-0.7214508,0.0074806-1.3007278,0.6018143-1.2932434,1.3231735c0.00383,0.1831436,0.00383,0.366291,0.00383,0.5456924    c0,1.2409554-0.0523758,2.4892998-0.157135,3.7190323c-0.0596848,0.721447,0.4710464,1.3531036,1.1923141,1.4128723    c0.0374146,0.0037422,0.0748291,0.0074844,0.1122437,0.0074844c0.6727142,0,1.2446899-0.5157661,1.3007202-1.1997986    C99.9437866,49.6299553,100,48.3030396,100,46.9910889C100,46.8004608,100,46.6060944,99.99617,46.4154663z"/><path d="M92.135788,25.9663258c0.2354355,0.4410286,0.6876831,0.6915188,1.1548996,0.6915188    c0.2093353,0,0.4186707-0.0523796,0.6166916-0.1570473c0.6354904-0.3401012,0.8784027-1.1325455,0.5345612-1.7716827    c-0.7064819-1.3194332-1.4914398-2.6238995-2.3249512-3.8759861c-0.3998718-0.598074-1.2109299-0.7625122-1.8128357-0.3588066    c-0.6017227,0.3998718-0.7625122,1.2110214-0.3624573,1.812746C90.7303085,23.4882507,91.4667206,24.7178898,92.135788,25.9663258    z"/><path d="M45.1972733,3.300736c0.074646,0,0.1533051-0.0074828,0.227951-0.0187068    c1.3941689-0.2467489,2.8182678-0.4261529,4.2348824-0.5344708c0.7214508-0.0561206,1.2596626-0.6877761,1.2036324-1.4053923    c-0.0562134-0.7214487-0.6803856-1.2634022-1.4054832-1.2036313c-1.4989281,0.1158917-3.0089874,0.3065199-4.4852829,0.5644017    c-0.7101326,0.1271158-1.1848335,0.803668-1.0614586,1.5175426C44.023571,2.8521347,44.5767517,3.300736,45.1972733,3.300736z"/><path d="M98.1833267,53.8871956c-0.7101288-0.1270256-1.394165,0.3401909-1.5250244,1.0503235    c-0.2540512,1.3941689-0.5829239,2.7883377-0.9716644,4.1526642c-0.198204,0.6951714,0.2018509,1.420269,0.8970184,1.6183777    c0.119545,0.0336723,0.2429199,0.0523796,0.3624573,0.0523796c0.5681458,0,1.0915756-0.3737717,1.256012-0.949398    c0.4111862-1.4465485,0.7586823-2.9266777,1.0315323-4.3993225    C99.3645096,54.7020874,98.8936462,54.0180511,98.1833267,53.8871956z"/><path d="M97.4881592,36.4245033c-0.7064819,0.1458244-1.162384,0.8372498-1.0167389,1.5437317    c0.2841568,1.3866882,0.504631,2.807045,0.6540985,4.2161789c0.0748291,0.672718,0.6391373,1.1698685,1.3009109,1.1698685    c0.0447159,0,0.0934448-0.0037422,0.1419907-0.0074844c0.7176132-0.0784798,1.23703-0.7213593,1.1585464-1.439064    c-0.1606064-1.4950943-0.3923874-2.9975815-0.6951675-4.4665756    C98.8898087,36.7347641,98.1946411,36.2787704,97.4881592,36.4245033z"/><path d="M88.4166718,19.3580341c0.2916412,0,0.583107-0.0971851,0.8260193-0.2952957    c0.5606613-0.4559917,0.6429749-1.2820168,0.1868896-1.8389359c-0.9455643-1.1587353-1.9659576-2.2875385-3.0276031-3.3564796    c-0.5082779-0.5121136-1.3343048-0.5158558-1.8500671-0.0074835c-0.5121155,0.5082817-0.5157623,1.338048-0.0074844,1.8501616    c1.0054321,1.0091705,1.9659576,2.0782032,2.8593292,3.1695919    C87.6616364,19.1935959,88.0354156,19.3580341,88.4166718,19.3580341z"/><path d="M93.967247,29.8199539c0.5418549,1.3082066,1.0315247,2.6574783,1.4463577,4.0143242    c0.1721039,0.5606613,0.6915207,0.9232101,1.252182,0.9232101c0.1272049,0,0.2542343-0.0187073,0.3812561-0.0597725    c0.6915207-0.2093353,1.0802536-0.9419136,0.8672714-1.6334343c-0.4411163-1.4353218-0.9568787-2.8668137-1.5325089-4.2497578    c-0.27668-0.6690693-1.0466766-0.9830704-1.7119141-0.7064819C94.0046539,28.3883724,93.6869125,29.1546249,93.967247,29.8199539z    "/><path d="M70.5204315,6.1638088c1.3007278,0.5569191,2.5939713,1.184833,3.8348312,1.8651266    c0.2018509,0.1084089,0.4150238,0.160697,0.628006,0.160697c0.4633865,0,0.9119873-0.2466578,1.1474152-0.680202    c0.3476791-0.635488,0.1158981-1.4278407-0.5194092-1.7754245c-1.3158722-0.7214489-2.6837616-1.3867769-4.0629654-1.9735358    c-0.6654205-0.2840714-1.4352341,0.0223572-1.7193909,0.6876853C69.544754,5.113483,69.855011,5.8797374,70.5204315,6.1638088z"/><path d="M92.2442017,70.3182678c-0.6093903-0.388649-1.4204559-0.2092438-1.8091888,0.3962173    c-0.4821854,0.7587738-0.9979477,1.5063248-1.5211945,2.2276764c-0.3288803,0.4523468-0.3288803,1.0428467-0.0412445,1.4838715    c-0.5008011-0.1681747-1.0725937-0.0186157-1.4239197,0.4111862c-0.5157623,0.6316605-1.0541611,1.2559204-1.5998535,1.8539047    c-0.4858322,0.5345612-0.4484177,1.3605881,0.0859604,1.8464203c0.2505798,0.231781,0.5644913,0.3439331,0.8820572,0.3439331    c0.3551559,0,0.7064819-0.1458206,0.9643631-0.4261551c0.5794601-0.6316528,1.1475983-1.2932358,1.6932983-1.9623108    c0.3662872-0.4485092,0.384903-1.0726776,0.0859604-1.5361557c0.1345062,0.0448074,0.2691956,0.0635147,0.4073563,0.0635147    c0.4037018,0,0.7999268-0.1831512,1.0578079-0.5344696c0.5568237-0.7625198,1.0988693-1.558609,1.6146317-2.3585358    C93.0289764,71.518158,92.8534088,70.7107468,92.2442017,70.3182678z"/><path d="M36.7424698,5.6405625c0.1569557,0,0.3139114-0.0261898,0.4672165-0.0859609    c1.3231735-0.5083723,2.6837616-0.9568825,4.0516472-1.3343973c0.6990013-0.1943693,1.1063576-0.9157269,0.9121704-1.610986    c-0.1907196-0.695259-0.9121704-1.1063552-1.607338-0.9119856c-1.4501953,0.3999634-2.89291,0.8783131-4.2945633,1.4166164    c-0.6729012,0.2578819-1.0092621,1.0129118-0.7513771,1.6894641C35.7182426,5.3228183,36.2153931,5.6405625,36.7424698,5.6405625z    "/><path d="M96.0116806,62.3942871c-0.6688843-0.2653656-1.4313965,0.0636024-1.6967621,0.7363205    c-0.5195999,1.3194351-1.1101913,2.6276398-1.7568054,3.8872986c-0.3288803,0.6428833-0.0748291,1.4314957,0.5717926,1.7604599    c0.1907196,0.0971832,0.3925705,0.1419907,0.5944214,0.1419907c0.4745178,0,0.934433-0.2578812,1.1660309-0.7101364    c0.6803894-1.3381348,1.3082123-2.721077,1.8577423-4.118988C97.0134583,63.4184227,96.6845856,62.6596489,96.0116806,62.3942871z    "/><path d="M41.6015282,30.4740582c-1.7343597,0.8297653-3.0949478,1.9810162-4.0815811,3.4499226l4.2609825,2.7472725    c0.6017265-0.8447342,1.3492737-1.4764786,2.2426414-1.8987999c0.8895378-0.4186707,1.8876686-0.6316566,2.997673-0.6316566    c1.3231735,0,2.3286018,0.27285,3.0162888,0.8148041c0.6840324,0.5419502,1.0278778,1.3156891,1.0278778,2.3286018    c0,0.6989059-0.1794052,1.4016495-0.5418625,2.1117821c-0.3588104,0.7102242-1.0578117,1.562439-2.0931702,2.5491638    l-9.7555275,9.2098312v3.793766h19.1110001V50.17939H46.9128342l5.8159409-5.4907112    c1.6595306-1.5399933,2.7808533-2.9117126,3.3564796-4.1189919c0.579277-1.2035408,0.8670883-2.4893913,0.8670883-3.8648529    c0-1.5175438-0.3885574-2.8332329-1.1735191-3.9545555c-0.781311-1.1213188-1.8763504-1.9884071-3.2854843-2.6014481    c-1.4091339-0.6129475-3.0538826-0.9194679-4.9300499-0.9194679    C45.3206482,29.2293625,43.3358879,29.6442909,41.6015282,30.4740582z"/><polygon points="78.8817902,40.1360512 73.3536682,40.1360512 73.3536682,44.8680801 66.562233,44.8680801 77.6183014,29.6629982     71.4773178,29.6629982 59.5539742,45.7015915 59.5539742,49.6374359 73.1740799,49.6374359 73.1740799,54.9487457     78.8817902,54.9487457 78.8817902,49.6374359 83.0006027,49.6374359 83.0006027,44.8680801 78.8817902,44.8680801   "/></g></g><text x="0" y="115" fill="#000000" font-size="5px" font-weight="bold" font-family="'Helvetica Neue', Helvetica, Arial-Unicode, Arial, Sans-serif">Created by AHMAD SIDIK</text><text x="0" y="120" fill="#000000" font-size="5px" font-weight="bold" font-family="'Helvetica Neue', Helvetica, Arial-Unicode, Arial, Sans-serif">from the Noun Project</text></svg>