<svg xmlns="http://www.w3.org/2000/svg" xmlns:xlink="http://www.w3.org/1999/xlink" version="1.1" x="0px" y="0px" viewBox="0 0 512 640" style="enable-background:new 0 0 512 512;" xml:space="preserve"><path d="M32,468c0-6.6,5.4-12,12-12h20v-16H44c-15.5,0-28,12.5-28,28s12.5,28,28,28h148v-16H44C37.4,480,32,474.6,32,468z"/><rect x="313.4" y="24" transform="matrix(0.7071 -0.7071 0.7071 0.7071 75.7847 246.9604)" width="45.3" height="16"/><rect x="326.1" y="56" transform="matrix(0.7071 -0.7071 0.7071 0.7071 60.1867 273.3036)" width="67.9" height="16"/><rect x="334.1" y="104" transform="matrix(0.7071 -0.7071 0.7071 0.7071 28.5887 293.0193)" width="67.9" height="16"/><path d="M385.7,337.7c9.8-9.7,9.8-25.6,0-35.3c-4.5-4.5-10.4-7.1-16.7-7.3c-0.5-13-11-23.5-24-24c-0.5-13-11-23.5-24-24  c-0.2-4.8-1.7-9.4-4.5-13.4c5.3-1.8,10-4.9,14-8.8l4-4l18.7,31.2l13.7-8.2l-24-40c-2.3-3.8-7.2-5-11-2.7c-0.6,0.3-1.1,0.7-1.5,1.2  l-11.2,11.2c-7.3,7.3-18.7,8.3-27.1,2.5l32.7-33.2c3-3,7.1-4.8,11.3-4.8c4.3,0,8.4,1.6,11.4,4.7l58.2,58.2c1.5,1.5,2.3,3.5,2.3,5.7  v49c0,6.4,2.5,12.5,7,17l75.3,75.3l11.3-11.3l-75.3-75.3c-1.5-1.5-2.3-3.5-2.3-5.7v-49c0-6.4-2.5-12.5-7-17l-58.2-58.2  c-6-6-14.1-9.4-22.6-9.4c0,0-0.1,0-0.1,0c-8.5,0-16.7,3.4-22.7,9.5l-1.2,1.2L275.3,136l31-31c9.4-9.4,9.4-24.6,0-33.9c0,0,0,0,0,0  L257,21.7c-9.4-9.4-24.6-9.4-33.9,0c0,0,0,0,0,0L125.7,119c-9.4,9.4-9.4,24.6,0,33.9c0,0,0,0,0,0l49.4,49.4  c3.4,3.5,7.9,5.8,12.7,6.6L176,220.7l-26.3-26.3c-3.1-3.1-8.2-3.1-11.3,0l-7,7c-8.1,8.1-11.2,19.9-8.3,30.9  c-5.1,0.8-9.8,3.1-13.4,6.8l-36.3,36.3c-6,6-9.4,14.1-9.4,22.6v12.1c0,8.5,3.4,16.6,9.4,22.6l3.3,3.3l-8,8H48  c-3.2,0-6.1,1.9-7.4,4.8l-24,56c-1.3,3-0.6,6.5,1.7,8.8l16,16c2.3,2.3,5.8,3,8.8,1.7l56-24c2.9-1.3,4.8-4.2,4.8-7.4v-20.7l8-8l1,1  c7.5,7.5,17.7,11.7,28.3,11.7h15.4l117.7,117.7l11.3-11.3l-120-120c-1.5-1.5-3.5-2.3-5.7-2.3h-18.7c-6.4,0-12.5-2.5-17-7l-39.6-39.6  c-3-3-4.7-7.1-4.7-11.3v-12.1c0-4.2,1.7-8.3,4.7-11.3l36.3-36.3c1.5-1.5,3.5-2.3,5.7-2.3h6.1l37.7,37.7l11.3-11.3l-39-39  c-6.2-6.2-6.2-16.4,0-22.6l1.4-1.4l69.7,69.7c1.5,1.5,2.3,3.5,2.3,5.7V336c0,2.1,0.8,4.2,2.3,5.7l160,160l11.3-11.3L232,332.7v-46.1  c0-5.2-1.7-10.3-4.8-14.5l19.2-19.2c9.4-9.4,9.4-24.6,0-33.9L229,201.7c-3.5-3.5-7.9-5.8-12.7-6.6l15.7-15.7l42.3,42.3l0.1-0.1  c0.1,0.2,0.3,0.3,0.4,0.5l2.8,2.8c1.1,1.1,2.3,2.1,3.5,3.1c-1,0.7-1.9,1.5-2.8,2.4l-32,32c-9.8,9.7-9.8,25.6,0,35.3  c4.5,4.5,10.4,7.1,16.7,7.3c0.5,13,11,23.5,24,24c0.5,13.8,12.1,24.5,25.9,24c2.5-0.1,4.9-0.6,7.2-1.4c4.2,13.1,18.3,20.4,31.4,16.2  c1.2-0.4,2.3-0.8,3.5-1.4l135.3,135.3l11.3-11.3L367.3,356L385.7,337.7z M88,347.3l12.7,12.7l-10.3,10.3c-1.5,1.5-2.3,3.5-2.3,5.7  v18.7l-46.2,19.8l-8.3-8.3L53.3,360H72c2.1,0,4.2-0.8,5.7-2.3L88,347.3z M234.3,33c3.1-3.1,8.2-3.1,11.3,0L295,82.3  c3.1,3.1,3.1,8.2,0,11.3l-15,15L219.3,48L234.3,33z M186.3,191L137,141.7c-3.1-3.1-3.1-8.2,0-11.3l15-15l60.7,60.7l-15,15  C194.5,194.1,189.5,194.1,186.3,191L186.3,191z M217.7,213l17.4,17.4c3.1,3.1,3.1,8.2,0,11.3l-19,19L187.3,232l19-19  C209.5,209.8,214.5,209.8,217.7,213z M224,164.7L163.3,104L208,59.3l60.7,60.7L224,164.7z M280.4,205.1L243.3,168l20.7-20.7  l36.9,36.9L280.4,205.1z M264,289c-5,0-9-4-9-9c0-2.4,0.9-4.7,2.6-6.3l32-32c3.5-3.5,9.2-3.5,12.7,0s3.5,9.2,0,12.7l-32,32  C268.7,288,266.4,289,264,289z M288,313c-5,0-9-4-9-9c0-2.4,0.9-4.7,2.6-6.3l32-32c3.5-3.5,9.2-3.5,12.7,0s3.5,9.2,0,12.7l-32,32  C292.7,312,290.4,313,288,313z M318.3,334.3c-3.5,3.5-9.2,3.5-12.7,0s-3.5-9.2,0-12.7l0,0l32-32c3.5-3.5,9.2-3.5,12.7,0  s3.5,9.2,0,12.7l-24,24L318.3,334.3z M350.3,350.3c-3.5,3.5-9.2,3.5-12.7,0s-3.5-9.2,0-12.7l0,0l24-24c3.5-3.5,9.2-3.5,12.7,0  s3.5,9.2,0,12.7L350.3,350.3z"/><rect x="76" y="116.7" transform="matrix(0.8575 -0.5145 0.5145 0.8575 -60.0588 63.1694)" width="16" height="46.6"/><rect x="36" y="151.6" transform="matrix(0.1961 -0.9806 0.9806 0.1961 -133.289 181.4136)" width="16" height="40.8"/><rect x="36.7" y="212" transform="matrix(0.8575 -0.5145 0.5145 0.8575 -104.6389 62.2224)" width="46.6" height="16"/><rect x="132" y="399.4" transform="matrix(0.3162 -0.9487 0.9487 0.3162 -295.1294 414.5298)" width="16" height="25.3"/><rect x="96" y="444.7" transform="matrix(0.7071 -0.7071 0.7071 0.7071 -291.9798 207.0984)" width="16" height="22.6"/><rect x="136" y="436.7" transform="matrix(0.7071 -0.7071 0.7071 0.7071 -274.6072 233.0395)" width="16" height="22.6"/><path d="M456,240h16c0-22.1-17.9-40-40-40v16C445.2,216,456,226.8,456,240z"/><path d="M480,208h16c0-17.7-14.3-32-32-32v16C472.8,192,480,199.2,480,208z"/><text x="0" y="527" fill="#000000" font-size="5px" font-weight="bold" font-family="'Helvetica Neue', Helvetica, Arial-Unicode, Arial, Sans-serif">Created by WiStudio</text><text x="0" y="532" fill="#000000" font-size="5px" font-weight="bold" font-family="'Helvetica Neue', Helvetica, Arial-Unicode, Arial, Sans-serif">from the Noun Project</text></svg>