<svg xmlns="http://www.w3.org/2000/svg" data-name="Layer 1" viewBox="0 0 100 125" x="0px" y="0px"><defs><style>.cls-1{fill-rule:evenodd;}</style></defs><title>a</title><path class="cls-1" d="M16.767,66.257,7.509,71.808l9.727,16.224,9.258-5.55-.639-1.066c-.019-.029-.037-.059-.054-.091L17.458,67.41c-.013-.02-.026-.04-.038-.061l-.018-.032-.635-1.06Zm3.334.916,9.286-5.412a.124.124,0,0,1,.044-.017.13.13,0,0,1,.061.006l17.625,5.14.107.037A2.141,2.141,0,0,1,48.44,68.06a2.564,2.564,0,0,1,.222.773q0,.045.009.09a2.514,2.514,0,0,1-.091.929c0,.017-.019.06-.043.129a2.343,2.343,0,0,1-1.21,1.341,2.7,2.7,0,0,1-1.951.13L37.649,69.1a1.193,1.193,0,0,0-.693,2.284l7.727,2.355a5.084,5.084,0,0,0,3.674-.261,4.712,4.712,0,0,0,2.435-2.7c.021-.059.048-.146.081-.259a4.851,4.851,0,0,0,.179-.983L65.121,63.4a5.361,5.361,0,0,1,2.544-.593,1.135,1.135,0,0,1,.573.2.956.956,0,0,1,.291.386,2.43,2.43,0,0,1,.134,1.2c-.06.572-.841,1.154-1.429,1.591l0,0v0l-.135.1c-.026.02-.052.04-.076.062-3.433,2.574-6.087,4.6-8.356,6.329C52.448,77.416,49.056,80,46.648,81.069c-2.553,1.129-4.146.385-7.654-1.254-.711-.332,0,0-.758-.356-.941-.438-1.48-.7-1.943-.918-2-.96-2.939-1.408-4.012-1.387a6.893,6.893,0,0,0-3.092,1.114c-.507.263-1.114.578-1.871.945L20.1,67.173ZM6,69.926l9.816-5.884a2.059,2.059,0,0,1,2.83.71l.223.371,9.317-5.43a2.471,2.471,0,0,1,.962-.326,2.5,2.5,0,0,1,1.006.09L47.781,64.6c.107.031.186.055.238.074A4.523,4.523,0,0,1,50.6,67.05l.028.062,13.537-5.9a7.571,7.571,0,0,1,3.742-.78,3.478,3.478,0,0,1,1.77.667,3.306,3.306,0,0,1,1.039,1.34,4.8,4.8,0,0,1,.322,2.394A4.871,4.871,0,0,1,68.66,68.1v0l-.134.1c-.025.019-.051.036-.077.053-3.065,2.3-5.907,4.466-8.337,6.32-6.365,4.856-9.84,7.507-12.5,8.684-3.537,1.564-5.44.675-9.628-1.283-.226-.105.528.247-.749-.346-.576-.268-1.325-.627-1.971-.936a9.059,9.059,0,0,0-2.945-1.154,6.1,6.1,0,0,0-2.035.852c-.48.249-1.046.543-1.732.878l.158.264a2.062,2.062,0,0,1-.71,2.83l-9.816,5.884a2.058,2.058,0,0,1-2.829-.71L5.293,72.756A2.062,2.062,0,0,1,6,69.926ZM89.116,31.405a11.914,11.914,0,1,0,3.489,8.424,11.878,11.878,0,0,0-3.489-8.424ZM67.794,46.033H43.942a1.2,1.2,0,0,0-.829.333L35.38,52.68V47.231a1.193,1.193,0,0,0-1.193-1.193v0H29.01A2.643,2.643,0,0,1,26.378,43.4V14.485a2.643,2.643,0,0,1,2.632-2.632H68.936a2.643,2.643,0,0,1,2.632,2.632v14.32q-.517.429-1,.906a14.318,14.318,0,0,0-2.779,16.322Zm12.9-20.513A14.309,14.309,0,1,1,70.573,49.947a14.427,14.427,0,0,1-1.327-1.529c-.1.007-.209.011-.31.011H44.363L34.94,56.122a1.193,1.193,0,0,1-1.946-.972V48.429H29.01A5.039,5.039,0,0,1,23.983,43.4V14.485A5.039,5.039,0,0,1,29.01,9.458H68.936a5.039,5.039,0,0,1,5.028,5.027V27.2a14.249,14.249,0,0,1,6.727-1.677ZM74.715,41.1a1.192,1.192,0,1,1,1.441-1.9l3.576,2.717,5.284-6.585a1.2,1.2,0,0,1,1.863,1.5l-6.011,7.489h0a1.191,1.191,0,0,1-1.649.2l-4.5-3.421Zm-31.7-19.33H64.034a1.2,1.2,0,0,0,0-2.4H43.012a1.2,1.2,0,0,0,0,2.4Zm-9.1,0h3.549a1.2,1.2,0,0,0,0-2.4H33.912a1.2,1.2,0,0,0,0,2.4Zm0,8.522H64.034a1.2,1.2,0,0,0,0-2.4H33.912a1.2,1.2,0,0,0,0,2.4ZM57.09,38.816h6.944a1.2,1.2,0,1,0,0-2.4H57.09a1.2,1.2,0,1,0,0,2.4Zm-23.178,0H51.538a1.2,1.2,0,1,0,0-2.4H33.912a1.2,1.2,0,0,0,0,2.4Z"/><text x="0" y="115" fill="#000000" font-size="5px" font-weight="bold" font-family="'Helvetica Neue', Helvetica, Arial-Unicode, Arial, Sans-serif">Created by Orange Cat</text><text x="0" y="120" fill="#000000" font-size="5px" font-weight="bold" font-family="'Helvetica Neue', Helvetica, Arial-Unicode, Arial, Sans-serif">from the Noun Project</text></svg>