<svg xmlns="http://www.w3.org/2000/svg" xmlns:xlink="http://www.w3.org/1999/xlink" version="1.1" x="0px" y="0px" viewBox="0 0 64 80" style="enable-background:new 0 0 64 64;" xml:space="preserve"><g><g><g><g><path d="M53.914,36.433h-4.639c-0.552,0-1-0.447-1-1v-6.045c0-0.553,0.448-1,1-1s1,0.447,1,1v5.045h3.639      c0.552,0,1,0.447,1,1S54.466,36.433,53.914,36.433z"/></g><g><path d="M61,56H3c-0.552,0-1-0.447-1-1s0.448-1,1-1h58c0.552,0,1,0.447,1,1S61.552,56,61,56z"/></g></g><g><path d="M61.708,32.065l-8.392-8.404c-0.188-0.188-0.442-0.293-0.708-0.293h-6.962v-6.03c0-0.553-0.448-1-1-1     h-7.561C34.802,11.425,29.802,8,24,8s-10.802,3.425-13.085,8.338H3c-0.552,0-1,0.447-1,1v27.609c0,0.553,0.448,1,1,1h4.266     c0.477,2.721,2.859,4.799,5.723,4.799s5.245-2.077,5.723-4.799h20.212c0.49,2.796,3.03,4.863,5.863,4.796     c2.774-0.066,5.18-2.17,5.602-4.917H61c0.552,0,1-0.447,1-1V32.772C62,32.508,61.895,32.253,61.708,32.065z M24,10     c6.844,0,12.412,5.515,12.412,12.293S30.844,34.586,24,34.586s-12.412-5.515-12.412-12.293S17.156,10,24,10z M12.988,48.746     c-2.104,0-3.815-1.704-3.815-3.799c0-2.096,1.711-3.8,3.815-3.8s3.815,1.704,3.815,3.8     C16.804,47.042,15.092,48.746,12.988,48.746z M38.923,43.947H18.711c-0.477-2.722-2.859-4.8-5.723-4.8s-5.246,2.077-5.723,4.8H4     V18.338h6.161C7.524,27.397,14.636,36.586,24,36.586c9.364,0,16.476-9.188,13.839-18.248h5.807v6.03v14.871     C41.242,39.658,39.344,41.55,38.923,43.947z M44.646,48.746c-2.104,0-3.815-1.704-3.815-3.799c0-2.096,1.711-3.8,3.815-3.8     s3.815,1.704,3.815,3.8C48.461,47.042,46.75,48.746,44.646,48.746z M60,43.826h-9.65c-0.462-2.341-2.34-4.176-4.704-4.587V25.368     h6.548L60,33.187V43.826z"/><g><path d="M28.146,26.185c-0.197,0-0.397-0.059-0.571-0.18l-4.146-2.892C23.16,22.926,23,22.62,23,22.293v-7.737      c0-0.553,0.448-1,1-1s1,0.447,1,1v7.216l3.718,2.593C29.501,24.911,29.097,26.185,28.146,26.185z"/></g></g></g></g><text x="0" y="79" fill="#000000" font-size="5px" font-weight="bold" font-family="'Helvetica Neue', Helvetica, Arial-Unicode, Arial, Sans-serif">Created by Shocho</text><text x="0" y="84" fill="#000000" font-size="5px" font-weight="bold" font-family="'Helvetica Neue', Helvetica, Arial-Unicode, Arial, Sans-serif">from the Noun Project</text></svg>